Coordinates
version=1
nRows=24
nColumns=24
inDegrees=yes

Units are S.I. units (second, meters, Newtons, ...)
Angles are in degrees.

endheader
time	pelvis_tilt	pelvis_list	pelvis_rotation	pelvis_tx	pelvis_ty	pelvis_tz	hip_flexion_r	hip_adduction_r	hip_rotation_r	knee_angle_r	ankle_angle_r	subtalar_angle_r	mtp_angle_r	hip_flexion_l	hip_adduction_l	hip_rotation_l	knee_angle_l	ankle_angle_l	subtalar_angle_l	mtp_angle_l	lumbar_extension	lumbar_bending	lumbar_rotation
      0.78766667	     -3.13917061	     -2.09346591	      1.15978244	     -0.35710705	      0.99514512	      0.30745369	     14.54794221	      6.64056641	     -5.20650840	    -16.10511192	      4.68576790	     -8.94660576	      6.05146653	     23.06428754	     -2.57820392	      0.07220294	    -69.19997610	     -4.57387402	     -8.81862386	      1.35762366	      0.81930185	      5.46348731	      1.33975997
      0.79183333	     -3.08952274	     -2.01516002	      1.02267421	     -0.35197628	      0.99588179	      0.30773954	     14.00746046	      6.59238734	     -5.18427467	    -15.82154639	      4.82536616	     -8.63351768	      6.10128194	     23.56482155	     -2.52482823	      0.01785842	    -68.87810018	     -4.03468543	     -9.04447306	      1.15127004	      0.70853833	      5.38639677	      1.54697875
      0.79600000	     -3.04201352	     -1.94552529	      0.87742263	     -0.34683664	      0.99660168	      0.30804234	     13.45813383	      6.55729096	     -5.13675293	    -15.51517384	      4.95070044	     -8.36774530	      6.14087672	     24.04900232	     -2.48693931	     -0.04351045	    -68.49963934	     -3.50261454	     -9.24007164	      0.98291976	      0.60010507	      5.31894483	      1.71324849
      0.80016667	     -2.99759047	     -1.88394776	      0.72337113	     -0.34170183	      0.99727968	      0.30834562	     12.91000209	      6.52850982	     -5.08651217	    -15.20303861	      5.07516784	     -8.09668036	      6.17477064	     24.52043878	     -2.46148506	     -0.11168217	    -68.07126328	     -2.96276958	     -9.40122471	      0.83343730	      0.49257709	      5.26576764	      1.88982813
      0.80433333	     -2.99257453	     -1.81007080	      0.55479568	     -0.33660687	      0.99786363	      0.30866251	     12.41691809	      6.48895281	     -5.00033666	    -14.91531675	      5.19510920	     -7.89569114	      6.19106561	     25.01915842	     -2.42372156	     -0.19158412	    -67.59173992	     -2.43009423	     -9.58818832	      0.77153073	      0.41635241	      5.20092157	      1.99003553
      0.80850000	     -2.92510468	     -1.73866124	      0.39442585	     -0.33144563	      0.99851225	      0.30896498	     11.83722594	      6.43973018	     -4.98575838	    -14.59204259	      5.33572665	     -7.49686559	      6.22325422	     25.42240664	     -2.39708065	     -0.27764181	    -67.04481076	     -1.93566991	     -9.64487091	      0.61578944	      0.28632905	      5.12609840	      2.28143576
      0.81266667	     -2.87794767	     -1.67075046	      0.21941901	     -0.32630384	      0.99911269	      0.30926944	     11.28425160	      6.39504821	     -4.94271872	    -14.27657777	      5.46428084	     -7.16347291	      6.25207518	     25.82915528	     -2.37530199	     -0.37428563	    -66.44517911	     -1.44477696	     -9.74026781	      0.45912401	      0.17584032	      5.06245706	      2.47956185
      0.81683333	     -2.85199556	     -1.61375313	      0.01797997	     -0.32118527	      0.99962019	      0.30961003	     10.76295617	      6.36505188	     -4.86427392	    -13.97660406	      5.58615995	     -6.88421814	      6.27149105	     26.24418110	     -2.38294508	     -0.50175041	    -65.80716770	     -0.95529645	     -9.82282639	      0.35892736	      0.09254668	      5.02227720	      2.62567209
      0.82100000	     -2.82757429	     -1.55871174	     -0.14978253	     -0.31606001	      1.00008372	      0.30991234	     10.23378467	      6.32740674	     -4.83445789	    -13.65459348	      5.71673738	     -6.52969357	      6.29404273	     26.65081568	     -2.37614264	     -0.58916228	    -65.12296532	     -0.51271179	     -9.83240458	      0.22407158	      0.00302922	      4.96000439	      2.85533995
      0.82516667	     -2.79809577	     -1.50280634	     -0.33499987	     -0.31093876	      1.00053166	      0.31020616	      9.70350194	      6.28579481	     -4.79013966	    -13.33988381	      5.83820365	     -6.18421866	      6.31620643	     27.02630771	     -2.37150198	     -0.69365561	    -64.38078235	     -0.08774810	     -9.86061462	      0.07832340	     -0.09082053	      4.91790785	      3.05271502
      0.82933333	     -2.78166432	     -1.44796383	     -0.54606325	     -0.30583346	      1.00092899	      0.31052883	      9.19282264	      6.24947479	     -4.69225927	    -13.03469037	      5.94955813	     -5.91050133	      6.33049049	     27.39371397	     -2.38116104	     -0.82756781	    -63.58874483	      0.32103265	     -9.90257805	      0.00002371	     -0.17014102	      4.88888913	      3.17017770
      0.83350000	     -2.73035666	     -1.41019129	     -0.73075637	     -0.30070992	      1.00132793	      0.31082431	      8.62949775	      6.22419373	     -4.63267782	    -12.69617781	      6.05965629	     -5.58979529	      6.34518356	     27.71016321	     -2.40106526	     -0.93506887	    -62.75494636	      0.70135301	     -9.88250970	     -0.08235710	     -0.29110444	      4.86387751	      3.34118635
      0.83766667	     -2.69572765	     -1.37565717	     -0.88483459	     -0.29557095	      1.00165678	      0.31106310	      8.08846910	      6.18863278	     -4.65518377	    -12.36358066	      6.17018962	     -5.18490891	      6.36795457	     28.03183827	     -2.40535675	     -1.00853353	    -61.87778938	      1.02702284	     -9.83556423	     -0.24516646	     -0.38733550	      4.82666073	      3.59123685
      0.84183333	     -2.66688423	     -1.33460026	     -1.07161051	     -0.29045482	      1.00193189	      0.31132973	      7.56171808	      6.14980759	     -4.60788653	    -12.04542677	      6.28357826	     -4.83676737	      6.39113842	     28.33469112	     -2.41791740	     -1.12007895	    -60.95084376	      1.34091304	     -9.80873519	     -0.39103593	     -0.48089741	      4.80150063	      3.74874267
      0.84600000	     -2.62619843	     -1.30338876	     -1.24904010	     -0.28532141	      1.00221018	      0.31158243	      7.01448260	      6.11955130	     -4.56059435	    -11.71043985	      6.38292431	     -4.51130444	      6.41411202	     28.60309056	     -2.43572872	     -1.22147524	    -59.97341423	      1.61897575	     -9.77613008	     -0.53114396	     -0.58513823	      4.78285937	      3.90210657
      0.85016667	     -2.59993778	     -1.27609285	     -1.42169009	     -0.28018466	      1.00241425	      0.31182022	      6.48585711	      6.08955743	     -4.51980908	    -11.38118355	      6.48289885	     -4.18323598	      6.43964314	     28.86968898	     -2.45425012	     -1.31729005	    -58.95448437	      1.86875796	     -9.73932753	     -0.67538128	     -0.67339951	      4.76913816	      4.05211300
      0.85433333	     -2.58393172	     -1.25178139	     -1.61431362	     -0.27506370	      1.00257077	      0.31208776	      5.97303441	      6.06727804	     -4.41658396	    -11.05829043	      6.58009842	     -3.91369801	      6.45799579	     29.12389099	     -2.48796725	     -1.43747757	    -57.88811999	      2.08527686	     -9.70605321	     -0.75998673	     -0.74701820	      4.76426040	      4.14634780
      0.85850000	     -2.54301984	     -1.22083583	     -1.77379271	     -0.26990695	      1.00272843	      0.31229254	      5.42515315	      6.02743765	     -4.36866174	    -10.71985954	      6.67562180	     -3.61764637	      6.47787502	     29.32914211	     -2.49379114	     -1.52862657	    -56.77082203	      2.27196210	     -9.66803412	     -0.84947010	     -0.85193607	      4.74306939	      4.27653425
      0.86266667	     -2.50973214	     -1.20725804	     -1.92740599	     -0.26475434	      1.00282233	      0.31248589	      4.88873556	      6.00431711	     -4.32010327	    -10.38596137	      6.77205710	     -3.32189291	      6.49925761	     29.52729807	     -2.51403442	     -1.60893711	    -55.61842556	      2.43267916	     -9.62958981	     -0.93897543	     -0.94150444	      4.74492578	      4.39791051
      0.86683333	     -2.48831984	     -1.20535620	     -2.07089189	     -0.25959647	      1.00285226	      0.31267045	      4.36513998	      5.99298862	     -4.27958782	    -10.05115669	      6.86886381	     -3.04519690	      6.52211918	     29.72276239	     -2.54367806	     -1.68368342	    -54.43254755	      2.56759262	     -9.59287371	     -1.03235963	     -1.01873584	      4.75576410	      4.51572515
      0.87100000	     -2.44036587	     -1.18507575	     -2.18588749	     -0.25439966	      1.00289841	      0.31278881	      3.81199888	      5.95108960	     -4.30356349	     -9.71531319	      6.96814124	     -2.72115231	      6.55884472	     29.86104349	     -2.53212246	     -1.73762337	    -53.18594433	      2.67318409	     -9.58173430	     -1.18726067	     -1.12400825	      4.74479361	      4.65944830
      0.87516667	     -2.42213809	     -1.17253986	     -2.32647738	     -0.24921102	      1.00285940	      0.31295235	      3.29705835	      5.92342857	     -4.25520055	     -9.39251307	      7.06998547	     -2.46923074	      6.59126812	     30.00894058	     -2.54754472	     -1.82466654	    -51.90208542	      2.75208516	     -9.56842232	     -1.31345811	     -1.18737404	      4.74548449	      4.74178562
      0.87933333	     -2.43398734	     -1.17162957	     -2.46636093	     -0.24406581	      1.00272530	      0.31310746	      2.82074882	      5.91304604	     -4.15781340	     -9.07643605	      7.17390251	     -2.26256752	      6.61345022	     30.17615736	     -2.57192059	     -1.90162700	    -50.58650007	      2.80930625	     -9.54411477	     -1.39034086	     -1.24285317	      4.77116610	      4.79623003
      0.88350000	     -2.40326237	     -1.17153570	     -2.57593931	     -0.23884047	      1.00261610	      0.31323198	      2.28867097	      5.89605277	     -4.13899906	     -8.74831107	      7.27521711	     -2.05083026	      6.64043859	     30.26991782	     -2.58407517	     -1.96969924	    -49.22442713	      2.84503608	     -9.56138079	     -1.49103632	     -1.31083277	      4.77269788	      4.88675939
